<svg xmlns="http://www.w3.org/2000/svg" viewBox="0 0 1024 1024"><defs><clipPath id="disque"><circle cx="512" cy="511" r="383"/></clipPath></defs><g id="fond"><rect width="1024" height="1024" fill="#FFFFFF"/></g><g id="disque"><circle cx="512" cy="511" r="383" fill="#FFFFFF"/></g><g id="anneau"><circle cx="512" cy="511" r="395.5" fill="none" stroke="#000000" stroke-width="27"/></g><g id="passage"><rect x="332.5" y="408" width="359.0" height="384" fill="#000000"/></g><g id="torii"><g fill="#000000">
<polygon points="281.5,296 332.5,296 332.5,797 263.5,797"/>
<polygon points="691.5,296 742.5,296 760.5,797 691.5,797"/>
<rect x="211.5" y="384" width="601" height="24"/></g></g><g id="kasagi"><g fill="#000000"><rect x="487.0" y="296" width="50" height="90"/><rect x="197.5" y="262" width="629" height="40"/></g>
<path d="M141.5 208 Q512.0 312 882.5 208 L858.5 250 Q512.0 346 165.5 250 Z" fill="#FFFFFF" stroke="#FFFFFF" stroke-width="24" stroke-linejoin="round"/><path d="M141.5 208 Q512.0 312 882.5 208 L858.5 250 Q512.0 346 165.5 250 Z" fill="#000000"/></g><g id="socle"><g clip-path="url(#disque)"><rect x="0" y="792" width="1024" height="11" fill="#000000"/><rect x="236" y="815" width="552" height="6" rx="3" fill="#000000"/></g></g></svg>