<svg xmlns="http://www.w3.org/2000/svg" viewBox="0 0 1024 1024" width="1024" height="1024"><g transform="translate(0 0) scale(1.00000)"><g id="x-disque"><circle cx="512" cy="511" r="383" fill="#121A1A"/></g><g id="anneau"><circle cx="512" cy="511" r="395.5" fill="none" stroke="#F5F3EA" stroke-width="27"/></g><g id="passage"><rect x="332.5" y="408" width="359.0" height="384" fill="#121A1A"/></g><g id="torii"><g fill="#C8432A">
<polygon points="281.5,296 332.5,296 332.5,797 263.5,797"/>
<polygon points="691.5,296 742.5,296 760.5,797 691.5,797"/>
<rect x="211.5" y="384" width="601" height="24"/></g></g><g id="kasagi"><g fill="#C8432A"><rect x="487.0" y="296" width="50" height="90"/><rect x="197.5" y="262" width="629" height="40"/></g>
<path d="M141.5 208 Q512.0 312 882.5 208 L858.5 250 Q512.0 346 165.5 250 Z" fill="#121A1A" stroke="#121A1A" stroke-width="24" stroke-linejoin="round"/><path d="M141.5 208 Q512.0 312 882.5 208 L858.5 250 Q512.0 346 165.5 250 Z" fill="#F5F3EA"/></g><g id="yeux"><path d="M362.0 535.0 Q421.0 593.5 504.0 597.0 Q441.0 547.7 362.0 535.0 Z" fill="#C8432A"/><path d="M662.0 535.0 Q579.0 538.5 520.0 597.0 Q599.0 584.3 662.0 535.0 Z" fill="#C8432A"/></g><g id="socle"><rect x="258" y="792" width="508" height="11" fill="#F5F3EA"/><rect x="283" y="815" width="458" height="6" rx="3" fill="#F5F3EA"/></g></g></svg>